<svg width="226" height="47" viewBox="0 0 226 47" fill="none" xmlns="http://www.w3.org/2000/svg">
<path d="M0.879395 8.81963L16.1009 0H71.9013L56.6753 8.81963H0.879395Z" fill="white"/>
<path d="M0 46.666V12.6816H54.3701V20.1256H6.08061V46.666H0Z" fill="white"/>
<path d="M10.8862 46.6641V39.2202H48.2849V33.3912H10.8862V25.9473H54.3699V46.6641H10.8862Z" fill="white"/>
<path d="M58.0298 39.219L69.3915 32.6342V26.5496L58.0298 33.1345V12.6786L73.2557 3.85352V11.0419L64.1104 16.338V22.428L73.2557 17.1265V37.5823L58.0298 46.402V39.219Z" fill="white"/>
<path d="M84.623 2.5918H98.4853V8.42738H89.8636V19.8013H96.6259V25.6369H89.8636V43.4264H84.623V2.5918Z" fill="white"/>
<path d="M103.537 2.5918H110.637L116.067 43.4191H110.826L109.873 35.3145V35.4305H103.916L102.963 43.4191H98.1011L103.531 2.5918H103.537ZM109.257 29.8849L106.924 9.70323H106.829L104.544 29.8849H109.263H109.257Z" fill="white"/>
<path d="M119.501 41.3485C118.198 39.5797 117.547 37.0425 117.547 33.7369V31.4026H122.503V34.2008C122.503 36.8468 123.409 38.1661 125.221 38.1661C126.109 38.1661 126.784 37.8471 127.246 37.202C127.708 36.564 127.939 35.5202 127.939 34.0848C127.939 32.374 127.619 30.8662 126.986 29.5613C126.352 28.2565 125.174 26.6979 123.462 24.8639C121.301 22.5296 119.791 20.4201 118.938 18.5354C118.08 16.6506 117.653 14.5193 117.653 12.1488C117.653 8.92296 118.323 6.42199 119.655 4.6532C120.987 2.8844 122.924 2 125.47 2C128.016 2 129.875 2.8844 131.166 4.6532C132.451 6.42199 133.097 8.9592 133.097 12.2648V13.9539H128.14V11.8516C128.14 10.4525 127.915 9.4304 127.471 8.79247C127.027 8.15454 126.376 7.82833 125.517 7.82833C123.77 7.82833 122.9 9.13318 122.9 11.7356C122.9 13.2145 123.226 14.5918 123.877 15.8749C124.528 17.158 125.713 18.7166 127.424 20.5434C129.615 22.8776 131.125 24.9944 131.948 26.9009C132.771 28.8074 133.186 31.0402 133.186 33.6064C133.186 36.9482 132.511 39.5145 131.16 41.305C129.81 43.0955 127.85 43.9872 125.274 43.9872C122.699 43.9872 120.81 43.1028 119.507 41.334L119.501 41.3485Z" fill="white"/>
<path d="M140.274 8.42013H134.797V2.5918H150.998V8.42738H145.521V43.4191H140.28V8.42013H140.274Z" fill="white"/>
<path d="M153.929 2.5918H161.692C164.392 2.5918 166.364 3.36021 167.601 4.89703C168.839 6.43386 169.461 8.79709 169.461 11.9867V14.4949C169.461 18.7357 168.318 21.4179 166.032 22.5415V22.6575C167.299 23.1214 168.2 24.0783 168.727 25.5137C169.248 26.9563 169.514 28.8773 169.514 31.2913V38.4679C169.514 39.6351 169.544 40.5774 169.609 41.2951C169.674 42.0128 169.828 42.7232 170.083 43.4264H164.747C164.558 42.7667 164.428 42.1433 164.368 41.5633C164.303 40.9834 164.274 39.9323 164.274 38.4172V30.9506C164.274 29.0875 164.025 27.7827 163.533 27.0432C163.042 26.3038 162.189 25.9341 160.987 25.9341H159.175V43.4336H153.935V2.5918H153.929ZM161.076 20.0913C162.124 20.0913 162.912 19.7578 163.433 19.0982C163.954 18.4385 164.22 17.3294 164.22 15.7708V12.6246C164.22 11.1458 164.007 10.0802 163.575 9.41327C163.148 8.75359 162.468 8.42013 161.55 8.42013H159.169V20.084H161.076V20.0913Z" fill="white"/>
<path d="M174.944 41.3459C173.612 39.5771 172.942 37.0399 172.942 33.7342V2.5918H178.183V34.2054C178.183 35.6045 178.414 36.6194 178.876 37.2356C179.338 37.859 179.995 38.1707 180.854 38.1707C181.712 38.1707 182.369 37.859 182.831 37.2356C183.293 36.6122 183.524 35.6045 183.524 34.2054V2.5918H188.575V33.7342C188.575 37.0399 187.906 39.5771 186.574 41.3459C185.241 43.1147 183.299 43.9991 180.759 43.9991C178.218 43.9991 176.282 43.1147 174.944 41.3459Z" fill="white"/>
<path d="M193.929 41.3741C192.608 39.6271 191.951 37.1551 191.951 33.9655V12.0368C191.951 8.84712 192.608 6.38241 193.929 4.62811C195.249 2.88106 197.162 2.00391 199.673 2.00391C202.184 2.00391 204.096 2.88106 205.417 4.62811C206.737 6.37516 207.394 8.84712 207.394 12.0368V16.35H202.438V11.6236C202.438 9.09359 201.562 7.83224 199.815 7.83224C198.068 7.83224 197.198 9.09359 197.198 11.6236V34.4294C197.198 36.9159 198.068 38.1628 199.815 38.1628C201.562 38.1628 202.438 36.9159 202.438 34.4294V28.1879H207.394V33.9655C207.394 37.1551 206.737 39.6198 205.417 41.3741C204.096 43.1212 202.184 43.9983 199.673 43.9983C197.162 43.9983 195.249 43.1212 193.929 41.3741Z" fill="white"/>
<path d="M214.63 8.42013H209.152V2.5918H225.354V8.42738H219.876V43.4191H214.636V8.42013H214.63Z" fill="white"/>
</svg>
