<svg width="116" height="47" viewBox="0 0 116 47" fill="none" xmlns="http://www.w3.org/2000/svg">
<path d="M0.879395 8.81963L16.1009 0H71.9013L56.6753 8.81963H0.879395Z" fill="white"/>
<path d="M0 46.666V12.6816H54.3701V20.1256H6.08061V46.666H0Z" fill="white"/>
<path d="M10.8862 46.6641V39.2202H48.2849V33.3912H10.8862V25.9473H54.3699V46.6641H10.8862Z" fill="white"/>
<path d="M58.0298 39.219L69.3915 32.6342V26.5496L58.0298 33.1345V12.6786L73.2557 3.85352V11.0419L64.1104 16.338V22.428L73.2557 17.1265V37.5823L58.0298 46.402V39.219Z" fill="white"/>
<path d="M84.623 2.5918H98.4853V8.42738H89.8636V19.8013H96.6259V25.6369H89.8636V43.4264H84.623V2.5918Z" fill="white"/>
<path d="M101.954 41.3485C100.651 39.5797 100 37.0425 100 33.7369V31.4026H104.956V34.2008C104.956 36.8468 105.862 38.1661 107.674 38.1661C108.562 38.1661 109.238 37.8471 109.699 37.202C110.161 36.564 110.392 35.5202 110.392 34.0848C110.392 32.374 110.072 30.8662 109.439 29.5613C108.805 28.2565 107.627 26.6979 105.916 24.8639C103.754 22.5296 102.244 20.4201 101.392 18.5354C100.533 16.6506 100.107 14.5193 100.107 12.1488C100.107 8.92296 100.776 6.42199 102.108 4.6532C103.44 2.8844 105.377 2 107.923 2C110.469 2 112.329 2.8844 113.619 4.6532C114.904 6.42199 115.55 8.9592 115.55 12.2648V13.9539H110.594V11.8516C110.594 10.4525 110.369 9.4304 109.924 8.79247C109.48 8.15454 108.829 7.82833 107.97 7.82833C106.224 7.82833 105.353 9.13318 105.353 11.7356C105.353 13.2145 105.679 14.5918 106.33 15.8749C106.981 17.158 108.166 18.7166 109.877 20.5434C112.068 22.8776 113.578 24.9944 114.401 26.9009C115.224 28.8074 115.639 31.0402 115.639 33.6064C115.639 36.9482 114.964 39.5145 113.614 41.305C112.263 43.0955 110.303 43.9872 107.728 43.9872C105.152 43.9872 103.263 43.1028 101.96 41.334L101.954 41.3485Z" fill="white"/>
</svg>
