<svg width="141" height="42" viewBox="0 0 141 42" fill="none" xmlns="http://www.w3.org/2000/svg">
<path d="M0 0.591797H13.8622V6.42738H5.24053V17.8013H12.0029V23.6369H5.24053V41.4264H0V0.591797Z" fill="white"/>
<path d="M18.914 0.591797H26.0139L31.4439 41.4191H26.2034L25.25 33.3145V33.4305H19.2929L18.3396 41.4191H13.478L18.9081 0.591797H18.914ZM24.6341 27.8849L22.3011 7.70323H22.2063L19.9206 27.8849H24.6401H24.6341Z" fill="white"/>
<path d="M34.8779 39.3485C33.5752 37.5797 32.9238 35.0425 32.9238 31.7369V29.4026H37.8801V32.2008C37.8801 34.8468 38.7861 36.1661 40.5981 36.1661C41.4863 36.1661 42.1614 35.8471 42.6233 35.202C43.0851 34.564 43.3161 33.5202 43.3161 32.0848C43.3161 30.374 42.9963 28.8662 42.3627 27.5613C41.7291 26.2565 40.5507 24.6979 38.8394 22.8639C36.6781 20.5296 35.1681 18.4201 34.3154 16.5354C33.4568 14.6506 33.0304 12.5193 33.0304 10.1488C33.0304 6.92296 33.6995 4.42199 35.0319 2.6532C36.3642 0.884399 38.3006 0 40.8468 0C43.3931 0 45.2524 0.884399 46.5433 2.6532C47.8283 4.42199 48.4737 6.9592 48.4737 10.2648V11.9539H43.5174V9.85162C43.5174 8.45253 43.2924 7.4304 42.8483 6.79247C42.4042 6.15454 41.7528 5.82833 40.8942 5.82833C39.1473 5.82833 38.2769 7.13318 38.2769 9.73563C38.2769 11.2145 38.6026 12.5918 39.2539 13.8749C39.9053 15.158 41.0896 16.7166 42.8009 18.5434C44.9919 20.8776 46.5019 22.9944 47.3249 24.9009C48.148 26.8074 48.5625 29.0402 48.5625 31.6064C48.5625 34.9482 47.8875 37.5145 46.5374 39.305C45.1873 41.0955 43.2272 41.9872 40.6514 41.9872C38.0755 41.9872 36.1866 41.1028 34.8838 39.334L34.8779 39.3485Z" fill="white"/>
<path d="M55.6512 6.42013H50.1738V0.591797H66.3751V6.42738H60.8977V41.4191H55.6572V6.42013H55.6512Z" fill="white"/>
<path d="M69.3057 0.591797H77.0688C79.769 0.591797 81.7408 1.36021 82.9784 2.89703C84.216 4.43386 84.8378 6.79709 84.8378 9.98672V12.4949C84.8378 16.7357 83.6949 19.4179 81.4092 20.5415V20.6575C82.6764 21.1214 83.5765 22.0783 84.1035 23.5137C84.6246 24.9563 84.8911 26.8773 84.8911 29.2913V36.4679C84.8911 37.6351 84.9207 38.5774 84.9858 39.2951C85.0509 40.0128 85.2049 40.7232 85.4595 41.4264H80.1243C79.9348 40.7667 79.8045 40.1433 79.7453 39.5633C79.6801 38.9834 79.6505 37.9323 79.6505 36.4172V28.9506C79.6505 27.0875 79.4018 25.7827 78.9103 25.0432C78.4188 24.3038 77.5662 23.9341 76.3641 23.9341H74.5521V41.4336H69.3116V0.591797H69.3057ZM76.4529 18.0913C77.501 18.0913 78.2886 17.7578 78.8097 17.0982C79.3308 16.4385 79.5972 15.3294 79.5972 13.7708V10.6246C79.5972 9.14582 79.3841 8.08019 78.9518 7.41327C78.5254 6.75359 77.8445 6.42013 76.9266 6.42013H74.5462V18.084H76.4529V18.0913Z" fill="white"/>
<path d="M90.3208 39.3459C88.9885 37.5771 88.3193 35.0399 88.3193 31.7342V0.591797H93.5599V32.2054C93.5599 33.6045 93.7908 34.6194 94.2527 35.2356C94.7146 35.859 95.3718 36.1707 96.2305 36.1707C97.0891 36.1707 97.7464 35.859 98.2083 35.2356C98.6701 34.6122 98.9011 33.6045 98.9011 32.2054V0.591797H103.952V31.7342C103.952 35.0399 103.283 37.5771 101.951 39.3459C100.618 41.1147 98.6761 41.9991 96.1357 41.9991C93.5954 41.9991 91.6591 41.1147 90.3208 39.3459Z" fill="white"/>
<path d="M109.306 39.3741C107.985 37.6271 107.328 35.1551 107.328 31.9655V10.0368C107.328 6.84712 107.985 4.38241 109.306 2.62811C110.626 0.881056 112.539 0.00390625 115.05 0.00390625C117.56 0.00390625 119.473 0.881056 120.794 2.62811C122.114 4.37516 122.771 6.84712 122.771 10.0368V14.35H117.815V9.62355C117.815 7.09359 116.939 5.83224 115.192 5.83224C113.445 5.83224 112.575 7.09359 112.575 9.62355V32.4294C112.575 34.9159 113.445 36.1628 115.192 36.1628C116.939 36.1628 117.815 34.9159 117.815 32.4294V26.1879H122.771V31.9655C122.771 35.1551 122.114 37.6198 120.794 39.3741C119.473 41.1212 117.56 41.9983 115.05 41.9983C112.539 41.9983 110.626 41.1212 109.306 39.3741Z" fill="white"/>
<path d="M130.007 6.42013H124.529V0.591797H140.731V6.42738H135.253V41.4191H130.013V6.42013H130.007Z" fill="white"/>
</svg>
