<svg width="252" height="367" viewBox="0 0 252 367" fill="none" xmlns="http://www.w3.org/2000/svg">
<path d="M0 367V308L151 174C162.333 164 170.333 154.583 175 145.75C179.667 136.917 182 128.667 182 121C182 110 179.75 100.25 175.25 91.75C170.75 83.0833 164.417 76.3333 156.25 71.5C148.083 66.5 138.5 64 127.5 64C116 64 105.833 66.6667 97 72C88.3333 77.1667 81.5833 84.0833 76.75 92.75C71.9167 101.25 69.6667 110.5 70 120.5H0C0 95.8333 5.41667 74.5 16.25 56.5C27.0833 38.5 42.1667 24.5833 61.5 14.75C80.8333 4.91667 103.333 0 129 0C152.5 0 173.5 5.16666 192 15.5C210.667 25.6666 225.333 39.9166 236 58.25C246.667 76.5833 252 97.8333 252 122C252 139.833 249.5 154.667 244.5 166.5C239.5 178.167 232.083 189 222.25 199C212.417 208.833 200.333 220 186 232.5L88.5 318L83 303H252V367H0Z" fill="#E5E0D2"/>
</svg>
