<svg width="246" height="367" viewBox="0 0 246 367" fill="none" xmlns="http://www.w3.org/2000/svg">
<path d="M120 366.5C102 366.5 84.8333 362.917 68.5 355.75C52.1667 348.417 37.9167 338.167 25.75 325C13.75 311.833 5.16667 296.333 0 278.5L66 261C69.5 274.167 76.3333 284.417 86.5 291.75C96.8333 298.917 108 302.5 120 302.5C130.333 302.5 139.75 300 148.25 295C156.917 290 163.75 283.25 168.75 274.75C173.917 266.25 176.5 256.833 176.5 246.5C176.5 231 171.167 217.75 160.5 206.75C150 195.583 136.5 190 120 190C115 190 110.167 190.75 105.5 192.25C100.833 193.583 96.3333 195.5 92 198L61.5 144.5L176 49.5L181 64H14V0H239V64L150 150L149.5 131C170.167 134.167 187.583 141.417 201.75 152.75C216.083 163.917 226.917 177.75 234.25 194.25C241.75 210.583 245.5 228 245.5 246.5C245.5 269.167 239.75 289.583 228.25 307.75C216.75 325.75 201.5 340.083 182.5 350.75C163.5 361.25 142.667 366.5 120 366.5Z" fill="#E5E0D2"/>
</svg>
