<svg width="245" height="368" viewBox="0 0 245 368" fill="none" xmlns="http://www.w3.org/2000/svg">
<path d="M117 367.5C98.8333 367.5 81.75 363.75 65.75 356.25C49.9167 348.75 36.25 338.333 24.75 325C13.25 311.667 5 296.167 0 278.5L65.5 261C67.6667 269.5 71.5 276.833 77 283C82.6667 289.167 89.1667 294 96.5 297.5C104 300.833 111.667 302.5 119.5 302.5C129.833 302.5 139.25 300 147.75 295C156.417 290 163.25 283.25 168.25 274.75C173.417 266.25 176 256.833 176 246.5C176 236.167 173.417 226.75 168.25 218.25C163.25 209.75 156.417 203 147.75 198C139.25 193 129.833 190.5 119.5 190.5C106.833 190.5 96.5 192.667 88.5 197C80.5 201.167 74.5 205.167 70.5 209L13 191.5L24 0H220.5V63.5H61.5L85.5 41L78 164.5L66.5 150.5C75.5 143.167 85.75 137.833 97.25 134.5C108.75 131.167 119.5 129.5 129.5 129.5C152.167 129.5 172.083 134.583 189.25 144.75C206.583 154.75 220.083 168.583 229.75 186.25C239.583 203.75 244.5 223.833 244.5 246.5C244.5 269.167 238.583 289.667 226.75 308C214.917 326.167 199.333 340.667 180 351.5C160.667 362.167 139.667 367.5 117 367.5Z" fill="#E5E0D2"/>
</svg>
